#!OML:ASF X:\für Bonn\!DataBase\2005_08_11_Bastian_Final\c3d\Bastian.ASF
:FULLY-SPECIFIED
:DEGREES
600
root 0.565973 1.17631 20.4148 -637.206 -0.609286 -179
lowerback 6.58716 -1.24195 3.94588
upperback 6.87027 -2.0961 1.86358
thorax 3.37682 -1.19155 -0.221805
lowerneck -21.1508 -4.03943 -4.85386
upperneck 2.48697 -4.89197 5.19118
head 4.31158 -2.27968 1.92327
rclavicle -5.96354e-015 -6.95746e-016
rhumerus -59.7962 50.9382 -113.337
rradius 25.3496
rwrist -10.5762
rhand -11.7897 -1.54686
rfingers 7.12502
rthumb 14.2597 -31.0373
lclavicle -5.96354e-015 -6.95746e-016
lhumerus -40.0291 -38.2115 103.904
lradius 16.2047
lwrist 21.7392
lhand -9.56833 -2.9232
lfingers 7.12502
lthumb 16.3993 26.4035
rfemur -2.67187 6.6608 22.5498
rtibia 31.5031
rfoot -13.8775 -25.341
rtoes -0.398467
lfemur 1.44918 3.26578 -15.3194
ltibia 21.5637
lfoot -2.20369 9.57569
ltoes -4.57551
601
root 0.566432 1.17512 20.4158 -637.159 -0.606301 -178.982
lowerback 6.55073 -1.24642 3.94487
upperback 6.85693 -2.10173 1.86622
thorax 3.3829 -1.19344 -0.219153
lowerneck -21.1184 -4.01249 -4.90133
upperneck 2.41751 -4.85281 5.25902
head 4.28634 -2.25872 1.95699
rclavicle 2.74323e-014 -1.32192e-014
rhumerus -59.861 50.9755 -113.388
rradius 25.3743
rwrist -10.5947
rhand -11.8126 -1.54484
rfingers 7.12502
rthumb 14.2376 -31.0368
lclavicle 2.74323e-014 -1.32192e-014
lhumerus -40.0025 -38.1826 103.869
lradius 16.1997
lwrist 21.7529
lhand -9.5547 -2.93123
lfingers 7.12502
lthumb 16.4124 26.3944
rfemur -2.72257 6.6814 22.5546
rtibia 31.495
rfoot -13.8799 -25.4002
rtoes -0.423688
lfemur 1.38041 3.27155 -15.3156
ltibia 21.5785
lfoot -2.18741 9.56095
ltoes -4.58392
602
root 0.566094 1.17475 20.4159 -637.113 -0.612969 -178.991
lowerback 6.50907 -1.24957 3.93484
upperback 6.84176 -2.10547 1.86417
thorax 3.39002 -1.19436 -0.216519
lowerneck -21.0699 -3.97552 -4.93686
upperneck 2.34273 -4.80206 5.31061
head 4.2557 -2.23306 1.9851
rclavicle 2.0276e-014 -3.23025e-014
rhumerus -59.8912 50.9989 -113.424
rradius 25.3806
rwrist -10.6046
rhand -11.8129 -1.5487
rfingers 7.12502
rthumb 14.2373 -31.0407
lclavicle 2.0276e-014 -3.23025e-014
lhumerus -40.002 -38.1587 103.838
lradius 16.2176
lwrist 21.7864
lhand -9.50353 -2.93549
lfingers 7.12502
lthumb 16.4617 26.3861
rfemur -2.77539 6.65763 22.5317
rtibia 31.4863
rfoot -13.853 -25.3864
rtoes -0.476591
lfemur 1.3216 3.27251 -15.3294
ltibia 21.5941
lfoot -2.19701 9.57156
ltoes -4.57931
603
root 0.566054 1.17476 20.4169 -637.053 -0.591691 -178.994
lowerback 6.45176 -1.24986 3.96054
upperback 6.81727 -2.10394 1.87012
thorax 3.39567 -1.19098 -0.226013
lowerneck -21.0185 -3.94716 -4.98614
upperneck 2.29211 -4.75824 5.3597
head 4.23275 -2.21042 2.01374
rclavicle 3.1408e-014 -2.38542e-015
rhumerus -59.9076 50.9846 -113.432
rradius 25.3783
rwrist -10.5956
rhand -11.8128 -1.54641
rfingers 7.12502
rthumb 14.2374 -31.0384
lclavicle 3.1408e-014 -2.38542e-015
lhumerus -39.9891 -38.1044 103.803
lradius 16.1997
lwrist 21.7205
lhand -9.46779 -2.98028
lfingers 7.12502
lthumb 16.4961 26.3384
rfemur -2.83745 6.68569 22.5478
rtibia 31.481
rfoot -13.8531 -25.3979
rtoes -0.432999
lfemur 1.25027 3.27716 -15.3092
ltibia 21.605
lfoot -2.20577 9.56774
ltoes -4.63282
604
root 0.566006 1.17406 20.418 -637.004 -0.594151 -178.993
lowerback 6.4144 -1.25281 3.95207
upperback 6.79136 -2.10616 1.87642
thorax 3.38942 -1.19122 -0.215342
lowerneck -20.9543 -3.91849 -5.02816
upperneck 2.23253 -4.71433 5.39071
head 4.20432 -2.18893 2.03574
rclavicle -5.1684e-015 5.76476e-015
rhumerus -59.8378 50.9161 -113.33
rradius 25.3562
rwrist -10.4913
rhand -11.7944 -1.52712
rfingers 7.12502
rthumb 14.2551 -31.0179
lclavicle -5.1684e-015 5.76476e-015
lhumerus -40.0519 -38.1386 103.862
lradius 16.2252
lwrist 21.7979
lhand -9.47869 -2.96075
lfingers 7.12502
lthumb 16.4856 26.3589
rfemur -2.89364 6.68132 22.5364
rtibia 31.4746
rfoot -13.8373 -25.4133
rtoes -0.473121
lfemur 1.18523 3.27635 -15.3167
ltibia 21.6194
lfoot -2.207 9.57196
ltoes -4.53977
605
root 0.565994 1.17406 20.4188 -636.957 -0.596621 -178.993
lowerback 6.36555 -1.25073 3.96046
upperback 6.7798 -2.1017 1.85747
thorax 3.4035 -1.18637 -0.240975
lowerneck -20.9123 -3.88883 -5.01531
upperneck 2.16858 -4.68518 5.43376
head 4.17778 -2.17388 2.05107
rclavicle -1.59028e-015 -1.64991e-014
rhumerus -59.8454 50.9045 -113.357
rradius 25.3686
rwrist -10.5021
rhand -11.7944 -1.52621
rfingers 7.12502
rthumb 14.2551 -31.017
lclavicle -1.59028e-015 -1.64991e-014
lhumerus -40.056 -38.1574 103.828
lradius 16.2256
lwrist 21.8202
lhand -9.44234 -2.93431
lfingers 7.12502
lthumb 16.5206 26.3824
rfemur -2.94493 6.67889 22.5263
rtibia 31.4708
rfoot -13.8259 -25.4111
rtoes -0.567596
lfemur 1.12903 3.27844 -15.323
ltibia 21.6285
lfoot -2.20771 9.57466
ltoes -4.58165
606
root 0.565893 1.17327 20.4197 -636.906 -0.574615 -178.993
lowerback 6.32454 -1.25168 3.96301
upperback 6.76122 -2.10367 1.88464
thorax 3.40766 -1.1872 -0.215186
lowerneck -20.884 -3.8645 -5.07203
upperneck 2.11673 -4.64109 5.45398
head 4.15694 -2.15267 2.0715
rclavicle 1.27222e-014 -4.83047e-014
rhumerus -59.8813 50.932 -113.357
rradius 25.3782
rwrist -10.5147
rhand -11.7945 -1.52838
rfingers 7.12502
rthumb 14.255 -31.0191
lclavicle 1.27222e-014 -4.83047e-014
lhumerus -40.0785 -38.1723 103.882
lradius 16.2395
lwrist 21.8793
lhand -9.45132 -2.91619
lfingers 7.12502
lthumb 16.512 26.4012
rfemur -3.00237 6.7054 22.5436
rtibia 31.4693
rfoot -13.8639 -25.439
rtoes -0.455255
lfemur 1.06572 3.27924 -15.3024
ltibia 21.6338
lfoot -2.20182 9.57794
ltoes -4.5811
607
root 0.56588 1.17327 20.4205 -636.859 -0.577046 -178.994
lowerback 6.27455 -1.25481 3.96323
upperback 6.75174 -2.10785 1.87754
thorax 3.42499 -1.18771 -0.22383
lowerneck -20.8642 -3.83423 -5.07775
upperneck 2.06302 -4.60306 5.47523
head 4.13606 -2.13422 2.08344
rclavicle -1.98785e-014 3.01159e-014
rhumerus -59.8713 50.9166 -113.356
rradius 25.3681
rwrist -10.4591
rhand -11.8171 -1.51415
rfingers 7.12502
rthumb 14.2333 -31.0064
lclavicle -1.98785e-014 3.01159e-014
lhumerus -40.0516 -38.1356 103.826
lradius 16.2291
lwrist 21.8381
lhand -9.4402 -2.93003
lfingers 7.12502
lthumb 16.5227 26.3865
rfemur -3.05335 6.78546 22.5511
rtibia 31.4657
rfoot -13.8668 -25.5159
rtoes -0.516051
lfemur 1.00987 3.28132 -15.3087
ltibia 21.6421
lfoot -2.19786 9.56559
ltoes -4.51006
